<svg xmlns="http://www.w3.org/2000/svg" width="24" height="28" viewBox="0 0 24 28">
  <g id="Icons_beat" data-name="Icons/ beat" transform="translate(1)">
    <g id="Icons_beat-2" data-name="Icons/ beat">
      <path id="Path" d="M0,.5H6" transform="translate(8 0.5)" fill="none" stroke="#56c596" stroke-linecap="round" stroke-linejoin="round" stroke-miterlimit="10" stroke-width="2"/>
      <path id="Path-2" data-name="Path" d="M.5,4V0" transform="translate(10.5 1)" fill="none" stroke="#56c596" stroke-linecap="round" stroke-linejoin="round" stroke-miterlimit="10" stroke-width="2"/>
      <path id="Path-3" data-name="Path" d="M.5.5h0" transform="translate(10.5 7.5)" fill="none" stroke="#56c596" stroke-linecap="round" stroke-linejoin="round" stroke-miterlimit="10" stroke-width="2"/>
      <path id="Path-4" data-name="Path" d="M.5.5h0" transform="translate(10.5 23.5)" fill="none" stroke="#56c596" stroke-linecap="round" stroke-linejoin="round" stroke-miterlimit="10" stroke-width="2"/>
      <path id="Path-5" data-name="Path" d="M.5.5h0" transform="translate(18.5 15.5)" fill="none" stroke="#56c596" stroke-linecap="round" stroke-linejoin="round" stroke-miterlimit="10" stroke-width="2"/>
      <path id="Path-6" data-name="Path" d="M.5.5h0" transform="translate(2.5 15.5)" fill="none" stroke="#56c596" stroke-linecap="round" stroke-linejoin="round" stroke-miterlimit="10" stroke-width="2"/>
      <path id="Path-7" data-name="Path" d="M9.15.825h0a2.376,2.376,0,0,0-3.6,0l-.5.5c-.1.1-.1.1-.2,0l-.5-.5a2.376,2.376,0,0,0-3.6,0h0a2.781,2.781,0,0,0,0,3.8l.6.6,3.5,3.7c.1.1.1.1.2.1l3.5-3.7.6-.6A2.716,2.716,0,0,0,9.15.825Z" transform="translate(6.05 11.975)" fill="none" stroke="#56c596" stroke-linecap="round" stroke-linejoin="round" stroke-miterlimit="10" stroke-width="2"/>
      <circle id="Oval" cx="11" cy="11" r="11" transform="translate(0 5)" fill="none" stroke="#56c596" stroke-linecap="round" stroke-linejoin="round" stroke-miterlimit="10" stroke-width="2"/>
    </g>
  </g>
</svg>
