<svg xmlns="http://www.w3.org/2000/svg" width="41.982" height="37.662" viewBox="0 0 41.982 37.662">
  <g id="Icons_heart" data-name="Icons/ heart" transform="translate(1.425 1.038)">
    <g id="Icons_heart-2" data-name="Icons/ heart">
      <path id="Path" d="M35.925,3.037h0a9.875,9.875,0,0,0-14.25,0l-1.95,2.1a.681.681,0,0,1-.75,0l-1.95-2.1a9.7,9.7,0,0,0-14.1,0h0a10.7,10.7,0,0,0,0,14.7l2.4,2.4,13.8,14.25a.681.681,0,0,0,.75,0l13.8-14.25,2.4-2.4A10.552,10.552,0,0,0,35.925,3.037Z" transform="translate(0.075 0.463)" fill="none" stroke="#205072" stroke-linecap="round" stroke-linejoin="round" stroke-miterlimit="10" stroke-width="3"/>
      <path id="Path-2" data-name="Path" d="M0,4.5H4.5l3-3,3,6,3-7.5,3,4.5H21" transform="translate(9 11)" fill="none" stroke="#205072" stroke-linecap="round" stroke-linejoin="round" stroke-miterlimit="10" stroke-width="3"/>
    </g>
  </g>
</svg>
