<svg xmlns="http://www.w3.org/2000/svg" width="42" height="44.571" viewBox="0 0 42 44.571">
  <g id="Icons_microscope" data-name="Icons/ microscope" transform="translate(1.5 1.45)">
    <g id="Icons_microscope-2" data-name="Icons/ microscope">
      <circle id="Oval" cx="5.25" cy="5.25" r="5.25" transform="translate(21 9.5)" fill="none" stroke="#205072" stroke-linecap="round" stroke-linejoin="round" stroke-miterlimit="10" stroke-width="3"/>
      <path id="Path" d="M12.9,15.3,9.3,19.05a2.9,2.9,0,0,1-4.2,0L.9,14.85a2.9,2.9,0,0,1,0-4.2L11.55,0,19.5,7.95" transform="translate(8.7 2)" fill="none" stroke="#205072" stroke-linecap="round" stroke-linejoin="round" stroke-miterlimit="10" stroke-width="3"/>
      <path id="Path-2" data-name="Path" d="M31.2,0A15.026,15.026,0,0,1,24,28.2H0v-3a3.009,3.009,0,0,1,3-3H18l6,6" transform="translate(0 12.8)" fill="none" stroke="#205072" stroke-linecap="round" stroke-linejoin="round" stroke-miterlimit="10" stroke-width="3"/>
      <path id="Path-3" data-name="Path" d="M11.7,0a9.027,9.027,0,0,1,3.6,7.35,9.094,9.094,0,0,1-9.3,9H0" transform="translate(18 18.65)" fill="none" stroke="#205072" stroke-linecap="round" stroke-linejoin="round" stroke-miterlimit="10" stroke-width="3"/>
      <path id="Path-4" data-name="Path" d="M7.95,4.35,4.65,7.5a1.45,1.45,0,0,1-2.1,0L.45,5.4a1.45,1.45,0,0,1,0-2.1L3.75,0" transform="translate(5.85 16.7)" fill="none" stroke="#205072" stroke-linecap="round" stroke-linejoin="round" stroke-miterlimit="10" stroke-width="3"/>
      <path id="Path-5" data-name="Path" d="M0,3,2.55.45a1.45,1.45,0,0,1,2.1,0L7.8,3.6a1.45,1.45,0,0,1,0,2.1L5.25,8.25" transform="translate(21.3 0.05)" fill="none" stroke="#205072" stroke-linecap="round" stroke-linejoin="round" stroke-miterlimit="10" stroke-width="3"/>
    </g>
  </g>
</svg>
